<svg xmlns="http://www.w3.org/2000/svg" xmlns:xlink="http://www.w3.org/1999/xlink" aria-hidden="true" role="img"
     class=" iconify iconify--ph" width="1em" height="1em" viewBox="0 0 256 256" style="font-size: 18px;">
    <path fill="currentColor"
          d="M120 216a8 8 0 0 1-8 8H48a8 8 0 0 1-8-8V40a8 8 0 0 1 8-8h64a8 8 0 0 1 0 16H56v160h56a8 8 0 0 1 8 8m109.66-93.66l-40-40a8 8 0 0 0-11.32 11.32L204.69 120H112a8 8 0 0 0 0 16h92.69l-26.35 26.34a8 8 0 0 0 11.32 11.32l40-40a8 8 0 0 0 0-11.32"></path>
</svg>
