<svg t="1745549921550" class="icon" viewBox="0 0 1024 1024" version="1.1" xmlns="http://www.w3.org/2000/svg"
     p-id="25285" width="32" height="32">
    <path d="M78.774857 367.616h288.841143v-288.914286h-288.914286v288.914286z m294.546286 78.774857H73.069714a73.142857 73.142857 0 0 1-73.069714-73.142857V73.142857A73.142857 73.142857 0 0 1 73.069714 0h300.251429a73.142857 73.142857 0 0 1 73.069714 73.069714v300.251429a73.142857 73.142857 0 0 1-73.142857 73.069714zM656.384 367.616h288.914286v-288.914286h-288.914286v288.914286z m294.546286 78.774857H650.678857a73.142857 73.142857 0 0 1-73.069714-73.142857V73.142857a73.142857 73.142857 0 0 1 73.142857-73.069714H950.857143A73.142857 73.142857 0 0 1 1024 73.069714v300.251429a73.142857 73.142857 0 0 1-73.069714 73.069714zM78.774857 945.225143h288.841143V656.384h-288.914286v288.914286zM373.321143 1024H73.069714A73.142857 73.142857 0 0 1 0 950.930286V650.678857a73.142857 73.142857 0 0 1 73.069714-73.069714h300.251429a73.142857 73.142857 0 0 1 73.069714 73.142857V950.857143a73.142857 73.142857 0 0 1-73.142857 73.069714zM656.384 945.225143h288.914286V656.384h-288.914286v288.914286zM950.930286 1024H650.678857a73.142857 73.142857 0 0 1-73.069714-73.069714V650.678857a73.142857 73.142857 0 0 1 73.142857-73.069714H950.857143a73.142857 73.142857 0 0 1 73.069714 73.142857V950.857143a73.142857 73.142857 0 0 1-73.069714 73.069714z"
          fill="currentColor" p-id="25286"></path>
    <path d="M196.900571 313.709714a45.494857 45.494857 0 0 1-32.182857-13.165714l-48.201143-48.274286a39.350857 39.350857 0 0 1 55.808-55.588571l24.576 24.649143L274.139429 144.091429a39.350857 39.350857 0 1 1 55.588571 55.734857L229.376 300.324571a46.006857 46.006857 0 0 1-32.402286 13.385143M774.509714 313.709714a45.494857 45.494857 0 0 1-32.182857-13.165714l-48.128-48.274286a39.350857 39.350857 0 0 1 55.734857-55.588571l24.649143 24.649143 77.165714-77.238857a39.350857 39.350857 0 1 1 55.661715 55.734857l-100.498286 100.498285a46.006857 46.006857 0 0 1-32.402286 13.385143"
          fill="currentColor" p-id="25287"></path>
</svg>
