<svg t="1745550223862" class="icon" viewBox="0 0 1024 1024" version="1.1" xmlns="http://www.w3.org/2000/svg"
     p-id="34007" width="32" height="32">
    <path d="M461.9 532.5h107V573h-107zM461.9 612h107v42h-107z" fill="currentColor" p-id="34008"></path>
    <path d="M512 87C278.2 87 87 278.2 87 512s191.2 425 425 425 425-191.2 425-425S745.7 87 512 87zM280.6 397.9l6.5-7c29.6-31.5 51.9-68.6 66.3-110.1l2.3-6.7 42 8.9-3.3 8.7c-2.7 7.3-5.8 15.4-9.3 23.7h134.3v40.5h-74.9c10.5 15.8 18.7 29.9 25.1 43l3.9 8-39.6 14.6-3.1-6.6c-9.2-19.3-20.4-38.7-34-58.9h-31.6c-14 24.2-28.2 44.1-43.2 60.8l-4.6 5.1-36.8-24z m82.3 352h-43V467.4h43v282.5z m43.3-266.5c-14.6-18.5-34.9-38.8-60.4-60.4l-8.4-7.1 34.2-21.4 4.4 3.7c25.8 21.5 47 41.8 62.9 60.4l5.7 6.7-33.9 24-4.5-5.9z m14.1 210v-200h190v200h-190z m323.1-337.5h-82.3c9.7 13.8 17.7 26.8 23.9 38.8l4.2 8.1-35.7 13.1h57.4v285.5c0 30.3-17.8 47-50 47h-54.2L596 707.3l60 1.2c7.5 0 12.4-2.4 12.4-14V456.9h-200v-41h180.2l-2.4-5c-9.1-18.7-20.5-37.2-33.8-55h-34.7c-10.7 19.7-21.7 36.5-33.6 51l-4.5 5.6-36.1-23.2 5.7-6.9c24.2-29.6 42.4-63.5 54-100.8l2.2-7 41.5 8.9-3 8.5c-2.7 7.7-5.4 15.6-8.3 23.4h147.8v40.5z"
          fill="currentColor" p-id="34009"></path>
</svg>
