<svg t="1745549592330" class="icon" viewBox="0 0 1024 1024" version="1.1" xmlns="http://www.w3.org/2000/svg"
     p-id="15005" width="32" height="32">
    <path d="M512 112c-220.9 0-400 179.1-400 400s179.1 400 400 400 400-179.1 400-400-179.1-400-400-400z m0 780c-209.9 0-380-170.1-380-380s170.1-380 380-380 380 170.1 380 380-170.1 380-380 380z"
          p-id="15006"></path>
    <path d="M512 182c-182.3 0-330 147.7-330 330s147.7 330 330 330 330-147.7 330-330-147.7-330-330-330z m-54.1 535.9L264.5 521l49.6-39.9 112 87.9c45.9-54.4 147.6-163 287.7-249l11.8 27.4C596.7 465.9 491.1 632.6 457.9 717.9z"
      fill="currentColor"    p-id="15007"></path>
</svg>
