<svg t="1745548978469" class="icon" viewBox="0 0 1024 1024" version="1.1" xmlns="http://www.w3.org/2000/svg" p-id="5909"
     width="32" height="32">
    <path d="M783.36 913.066667H240.64c-18.773333 0-34.133333-15.36-34.133333-34.133334s15.36-34.133333 34.133333-34.133333h542.72c18.773333 0 34.133333 15.36 34.133333 34.133333s-15.36 34.133333-34.133333 34.133334zM477.866667 575.146667v-102.4h-27.306667c3.413333 44.373333 15.36 80.213333 27.306667 102.4z"
          fill="currentColor" p-id="5910"></path>
    <path d="M896 119.466667h-768C76.8 119.466667 34.133333 160.426667 34.133333 213.333333V665.6c0 51.2 42.666667 93.866667 93.866667 93.866667h768c51.2 0 93.866667-42.666667 93.866667-93.866667V213.333333C989.866667 160.426667 947.2 119.466667 896 119.466667zM512 677.546667c-131.413333 0-238.933333-107.52-238.933333-238.933334s107.52-238.933333 238.933333-238.933333 238.933333 107.52 238.933333 238.933333-107.52 238.933333-238.933333 238.933334z"
          fill="currentColor" p-id="5911"></path>
    <path d="M477.866667 404.48v-102.4c-11.946667 23.893333-23.893333 58.026667-27.306667 102.4H477.866667zM344.746667 404.48h37.546666c1.706667-35.84 8.533333-66.56 18.773334-95.573333-29.013333 23.893333-47.786667 58.026667-56.32 95.573333zM546.133333 575.146667c11.946667-23.893333 23.893333-58.026667 27.306667-102.4H546.133333v102.4zM546.133333 404.48h27.306667c-3.413333-44.373333-15.36-80.213333-27.306667-102.4v102.4zM622.933333 308.906667c10.24 27.306667 15.36 59.733333 18.773334 95.573333h37.546666c-8.533333-37.546667-27.306667-71.68-56.32-95.573333zM344.746667 472.746667c8.533333 37.546667 27.306667 71.68 56.32 95.573333-10.24-27.306667-15.36-59.733333-18.773334-95.573333h-37.546666zM622.933333 568.32c29.013333-23.893333 47.786667-58.026667 56.32-95.573333h-37.546666c-3.413333 35.84-8.533333 66.56-18.773334 95.573333z"
          fill="currentColor" p-id="5912"></path>
</svg>
